<svg width="24" height="25" viewBox="0 0 24 25" fill="none" xmlns="http://www.w3.org/2000/svg">
<path d="M8 3.00391C5.239 3.00391 3 5.24291 3 8.00391V16.0039C3 18.7649 5.239 21.0039 8 21.0039H16C18.761 21.0039 21 18.7649 21 16.0039V8.00391C21 5.24291 18.761 3.00391 16 3.00391H8ZM18 5.00391C18.552 5.00391 19 5.45191 19 6.00391C19 6.55591 18.552 7.00391 18 7.00391C17.448 7.00391 17 6.55591 17 6.00391C17 5.45191 17.448 5.00391 18 5.00391ZM12 7.00391C14.761 7.00391 17 9.24291 17 12.0039C17 14.7649 14.761 17.0039 12 17.0039C9.239 17.0039 7 14.7649 7 12.0039C7 9.24291 9.239 7.00391 12 7.00391ZM12 9.00391C11.2044 9.00391 10.4413 9.31998 9.87868 9.88259C9.31607 10.4452 9 11.2083 9 12.0039C9 12.7996 9.31607 13.5626 9.87868 14.1252C10.4413 14.6878 11.2044 15.0039 12 15.0039C12.7956 15.0039 13.5587 14.6878 14.1213 14.1252C14.6839 13.5626 15 12.7996 15 12.0039C15 11.2083 14.6839 10.4452 14.1213 9.88259C13.5587 9.31998 12.7956 9.00391 12 9.00391Z" fill="#0F0A0A"/>
</svg>
