<svg width="24" height="25" viewBox="0 0 24 25" fill="none" xmlns="http://www.w3.org/2000/svg">
<path d="M22 4.00293C21.22 4.46593 19.655 5.09693 18.735 5.27893C18.708 5.28593 18.686 5.29493 18.66 5.30193C17.847 4.49993 16.733 4.00293 15.5 4.00293C13.015 4.00293 11 6.01793 11 8.50293C11 8.63393 10.989 8.87493 11 9.00293C7.647 9.00293 5.095 7.24693 3.265 5.00293C3.066 5.50293 2.979 6.29293 2.979 7.03493C2.979 8.43593 4.074 9.81193 5.779 10.6649C5.465 10.7459 5.119 10.8039 4.759 10.8039C4.178 10.8039 3.563 10.6509 3 10.1869C3 10.2039 3 10.2199 3 10.2379C3 12.1959 5.078 13.5289 6.926 13.8999C6.551 14.1209 5.795 14.1429 5.426 14.1429C5.166 14.1429 4.246 14.0239 4 13.9779C4.514 15.5829 6.368 16.4849 8.135 16.5169C6.753 17.6009 5.794 18.0029 2.964 18.0029H2C3.788 19.1489 6.065 20.0039 8.347 20.0039C15.777 20.0039 20 14.3409 20 9.00293C20 8.91693 19.998 8.73693 19.995 8.55593C19.995 8.53793 20 8.52093 20 8.50293C20 8.47593 19.992 8.44993 19.992 8.42293C19.989 8.28693 19.986 8.15993 19.983 8.09393C20.773 7.52393 21.458 6.81293 22 6.00293C21.275 6.32493 20.497 6.54093 19.68 6.63893C20.514 6.13893 21.699 4.94693 22 4.00293Z" fill="#0F0A0A"/>
</svg>
